<svg viewBox="0 0 639 145" fill="none" xmlns="http://www.w3.org/2000/svg">
<g id="logo-trivento">
<path id="Vector" d="M520.94 3.17008L530 16.0501H489.88C489.51 16.0468 489.147 16.146 488.83 16.3368C488.513 16.5277 488.256 16.8026 488.086 17.131C487.916 17.4594 487.84 17.8286 487.867 18.1974C487.895 18.5662 488.024 18.9202 488.24 19.2201L497.34 32.1001H457.18C456.81 32.0968 456.447 32.196 456.13 32.3868C455.813 32.5777 455.556 32.8526 455.386 33.181C455.216 33.5094 455.14 33.8786 455.167 34.2474C455.195 34.6162 455.324 34.9702 455.54 35.2701L512.75 116.27C512.934 116.534 513.18 116.75 513.465 116.899C513.751 117.048 514.068 117.125 514.39 117.125C514.712 117.125 515.029 117.048 515.315 116.899C515.6 116.75 515.846 116.534 516.03 116.27L536.41 87.4301L545.41 100.22C545.594 100.486 545.84 100.704 546.126 100.854C546.413 101.004 546.731 101.083 547.055 101.083C547.378 101.083 547.697 101.004 547.984 100.854C548.27 100.704 548.516 100.486 548.7 100.22L569.1 71.3401L578.1 84.1301C578.284 84.3941 578.53 84.6098 578.815 84.7587C579.101 84.9076 579.418 84.9854 579.74 84.9854C580.062 84.9854 580.379 84.9076 580.665 84.7587C580.95 84.6098 581.196 84.3941 581.38 84.1301L638.59 3.13008C638.793 2.83386 638.913 2.48843 638.936 2.13005C638.96 1.77168 638.886 1.41359 638.724 1.09339C638.561 0.773192 638.315 0.5027 638.012 0.310322C637.708 0.117944 637.359 0.0107787 637 8.09539e-05H522.58C522.21 -0.0032457 521.847 0.0960146 521.53 0.286833C521.213 0.477652 520.956 0.752556 520.786 1.081C520.616 1.40945 520.54 1.77857 520.567 2.14737C520.595 2.51616 520.724 2.87017 520.94 3.17008ZM513.57 103.46L469.94 41.7201C469.83 41.5701 469.765 41.3926 469.75 41.2074C469.736 41.0222 469.773 40.8367 469.859 40.6716C469.944 40.5066 470.073 40.3685 470.232 40.2728C470.392 40.1772 470.574 40.1277 470.76 40.1301H558C558.186 40.1277 558.368 40.1772 558.528 40.2728C558.687 40.3685 558.816 40.5066 558.901 40.6716C558.987 40.8367 559.024 41.0222 559.01 41.2074C558.995 41.3926 558.93 41.5701 558.82 41.7201L515.19 103.46C515.097 103.588 514.975 103.692 514.835 103.764C514.694 103.836 514.538 103.874 514.38 103.874C514.222 103.874 514.066 103.836 513.925 103.764C513.784 103.692 513.663 103.588 513.57 103.46ZM546.26 87.4601L541.33 80.4601L573.23 35.3001C573.446 35.0002 573.575 34.6462 573.603 34.2774C573.63 33.9086 573.554 33.5394 573.384 33.211C573.214 32.8826 572.957 32.6077 572.64 32.4168C572.323 32.226 571.96 32.1268 571.59 32.1301H507.18L502.64 25.7001C502.533 25.5501 502.47 25.3736 502.457 25.19C502.444 25.0064 502.482 24.8228 502.567 24.6594C502.652 24.496 502.78 24.3592 502.938 24.2641C503.095 24.1689 503.276 24.1191 503.46 24.1201H590.71C590.894 24.1191 591.075 24.1689 591.232 24.2641C591.39 24.3592 591.518 24.496 591.603 24.6594C591.688 24.8228 591.726 25.0064 591.713 25.19C591.7 25.3736 591.637 25.5501 591.53 25.7001L547.9 87.4101C547.808 87.5421 547.685 87.6499 547.542 87.7244C547.4 87.7988 547.241 87.8377 547.08 87.8377C546.919 87.8377 546.76 87.7988 546.618 87.7244C546.475 87.6499 546.352 87.5421 546.26 87.4101V87.4601ZM574.02 64.4601L605.93 19.3101C606.146 19.0102 606.275 18.6562 606.303 18.2874C606.33 17.9186 606.254 17.5494 606.084 17.221C605.914 16.8926 605.657 16.6177 605.34 16.4268C605.023 16.236 604.66 16.1368 604.29 16.1401H539.88L535.33 9.71008C535.18 9.5641 535.079 9.37452 535.042 9.16815C535.005 8.96178 535.034 8.74905 535.125 8.56002C535.215 8.371 535.363 8.21524 535.547 8.11476C535.731 8.01428 535.942 7.97417 536.15 8.00008H623.41C623.594 7.99909 623.775 8.04892 623.932 8.14408C624.09 8.23924 624.218 8.37605 624.303 8.53942C624.388 8.7028 624.426 8.88641 624.413 9.07002C624.4 9.25364 624.337 9.43014 624.23 9.58008L580.6 71.3601C580.508 71.4921 580.385 71.5999 580.242 71.6744C580.1 71.7488 579.941 71.7877 579.78 71.7877C579.619 71.7877 579.46 71.7488 579.318 71.6744C579.175 71.5999 579.052 71.4921 578.96 71.3601L574.02 64.4601Z" fill="white"/>
<path id="Vector_2" d="M70.27 11.48H0V22C0 23.3685 0.543641 24.681 1.51133 25.6487C2.47902 26.6163 3.79148 27.16 5.16 27.16H26.49V99.91C26.49 101.279 27.0336 102.591 28.0013 103.559C28.969 104.526 30.2815 105.07 31.65 105.07H43.65V27.17H70.27V11.48Z" fill="white"/>
<path id="Vector_3" d="M105.79 38.45C103.602 37.7173 101.307 37.3523 99 37.37C95.4499 37.4519 92.0317 38.7311 89.3 41C87.9674 42.0436 86.7504 43.227 85.67 44.53V38.84H75.43C74.7524 38.84 74.0814 38.9735 73.4553 39.2328C72.8293 39.4921 72.2605 39.8722 71.7813 40.3513C71.3022 40.8305 70.9221 41.3993 70.6628 42.0254C70.4035 42.6514 70.27 43.3224 70.27 44V99.91C70.27 101.279 70.8136 102.591 71.7813 103.559C72.749 104.526 74.0615 105.07 75.43 105.07H85.67V57.67C86.3248 56.2265 87.2954 54.9484 88.51 53.93C90.3171 52.5357 92.5599 51.8271 94.84 51.93C96.4676 51.8731 98.0882 52.1699 99.59 52.8C101.022 53.4997 102.365 54.3693 103.59 55.39L111.07 42.29C109.726 40.5184 107.889 39.1826 105.79 38.45Z" fill="white"/>
<path id="Vector_4" d="M116.54 44V99.91C116.54 100.588 116.674 101.26 116.934 101.887C117.194 102.514 117.575 103.083 118.055 103.562C118.535 104.041 119.105 104.421 119.732 104.68C120.359 104.939 121.032 105.071 121.71 105.07H131.81V38.84H121.7C120.331 38.84 119.019 39.3836 118.051 40.3513C117.084 41.319 116.54 42.6314 116.54 44Z" fill="white"/>
<path id="Vector_5" d="M170.77 79.43L153.49 38.84H136.49L166.11 101.31C166.529 102.191 167.189 102.935 168.014 103.456C168.839 103.978 169.794 104.254 170.77 104.254C171.746 104.254 172.701 103.978 173.526 103.456C174.351 102.935 175.011 102.191 175.43 101.31L205.18 38.84H188.05L170.77 79.43Z" fill="white"/>
<path id="Vector_6" d="M313.41 37.4C309.264 37.2846 305.163 38.2789 301.53 40.28C298.041 42.3781 295.219 45.4225 293.39 49.06V39.71C293.39 39.2797 293.305 38.8537 293.14 38.4563C292.975 38.0589 292.733 37.698 292.429 37.3942C292.124 37.0904 291.762 36.8497 291.364 36.686C290.967 36.5223 290.54 36.4386 290.11 36.44H281.11C280.68 36.4386 280.253 36.5223 279.856 36.686C279.458 36.8497 279.096 37.0904 278.791 37.3942C278.487 37.698 278.245 38.0589 278.08 38.4563C277.915 38.8537 277.83 39.2797 277.83 39.71V101.79C277.83 102.66 278.176 103.494 278.791 104.109C279.406 104.724 280.24 105.07 281.11 105.07H290.11C290.98 105.07 291.814 104.724 292.429 104.109C293.044 103.494 293.39 102.66 293.39 101.79V64.79C293.328 62.0561 293.972 59.3524 295.26 56.94C296.445 54.7425 298.245 52.9387 300.44 51.75C302.794 50.5156 305.422 49.8965 308.08 49.95C312.3 49.95 315.42 51.2 317.44 53.7C319.46 56.2 320.46 59.8966 320.44 64.79V101.79C320.44 102.66 320.786 103.494 321.401 104.109C322.016 104.724 322.85 105.07 323.72 105.07H333.14C333.571 105.071 333.998 104.987 334.397 104.823C334.795 104.659 335.157 104.417 335.462 104.112C335.767 103.807 336.009 103.445 336.173 103.047C336.337 102.648 336.421 102.221 336.42 101.79V63C336.42 55 334.453 48.7366 330.52 44.21C326.587 39.6833 320.883 37.4133 313.41 37.4Z" fill="white"/>
<path id="Vector_7" d="M361.06 23H352.89C351.94 22.9987 350.998 23.1847 350.12 23.5475C349.242 23.9102 348.444 24.4426 347.771 25.1141C347.099 25.7856 346.565 26.5831 346.201 27.4609C345.837 28.3387 345.65 29.2797 345.65 30.23V99.91C345.65 101.279 346.194 102.591 347.161 103.559C348.129 104.526 349.441 105.07 350.81 105.07H361.06V52.52H372.15V38.84H361.06V23Z" fill="white"/>
<path id="Vector_8" d="M442.62 54C439.525 48.8872 435.129 44.6875 429.88 41.83C424.281 38.8348 418.009 37.3235 411.66 37.44C405.29 37.331 398.997 38.8415 393.37 41.83C388.1 44.6591 383.697 48.8653 380.63 54C377.454 59.4573 375.852 65.6876 376 72C375.885 78.2928 377.505 84.4959 380.68 89.93C383.733 95.0939 388.138 99.3262 393.42 102.17C399.047 105.158 405.34 106.669 411.71 106.56C418.059 106.676 424.331 105.165 429.93 102.17C435.321 99.2206 439.799 94.8472 442.874 89.5269C445.95 84.2066 447.505 78.1438 447.37 72C447.504 65.6734 445.859 59.4364 442.62 54ZM428.8 82.83C427.134 85.879 424.669 88.4166 421.67 90.17C418.609 91.9129 415.147 92.8295 411.625 92.8295C408.103 92.8295 404.641 91.9129 401.58 90.17C398.611 88.4044 396.175 85.868 394.53 82.83C392.752 79.5015 391.857 75.7728 391.93 72C391.846 68.1717 392.741 64.3854 394.53 61C396.143 57.9391 398.587 55.3951 401.58 53.66C404.655 51.9607 408.111 51.0694 411.625 51.0694C415.139 51.0694 418.595 51.9607 421.67 53.66C424.693 55.3828 427.166 57.928 428.8 61C430.581 64.388 431.473 68.1731 431.39 72C431.461 75.7714 430.57 79.4988 428.8 82.83Z" fill="white"/>
<path id="Vector_9" d="M122.74 30.1601C124.279 30.4663 125.875 30.2694 127.293 29.5984C128.711 28.9274 129.876 27.818 130.615 26.4341C131.354 25.0502 131.628 23.4653 131.397 21.9135C131.166 20.3618 130.442 18.9256 129.331 17.8172C128.221 16.7088 126.784 15.9871 125.231 15.7586C123.679 15.5301 122.095 15.8071 120.712 16.5485C119.33 17.29 118.222 18.4566 117.554 19.8759C116.885 21.2952 116.691 22.8919 117 24.4301C117.284 25.8451 117.981 27.1444 119.002 28.1641C120.024 29.1838 121.324 29.8783 122.74 30.1601Z" fill="white"/>
<path id="Vector_10" d="M236.15 36.84C226.03 36.84 217.68 40.29 211.31 47.12C205.31 53.63 202.31 61.99 202.31 71.95C202.31 81.91 205.48 90.21 211.72 96.82C218.16 103.62 226.59 107.07 236.79 107.07C244.79 107.07 251.49 105.12 256.66 101.28C261.444 97.7074 265.164 92.8984 267.42 87.37H254.1C253.414 87.3675 252.734 87.5035 252.102 87.7698C251.47 88.0362 250.898 88.4273 250.42 88.92C247.12 92.39 242.67 94.12 236.92 94.12C231.17 94.12 226.51 92.39 222.79 88.83C219.705 85.9049 217.608 82.0917 216.79 77.92H270V72C270 62 267 53.68 261 47.15C254.62 40.29 246.27 36.84 236.15 36.84ZM217 64.71C217.877 60.878 219.879 57.3957 222.75 54.71C226.482 51.5249 231.228 49.7752 236.135 49.7752C241.042 49.7752 245.788 51.5249 249.52 54.71C252.394 57.3947 254.4 60.8771 255.28 64.71H217Z" fill="white"/>
<path id="Vector_11" d="M29.86 130.51V136H40.41C40.5078 136.016 40.5982 136.062 40.6682 136.132C40.7383 136.202 40.7844 136.292 40.8 136.39V137.72C40.7844 137.818 40.7383 137.908 40.6682 137.978C40.5982 138.048 40.5078 138.094 40.41 138.11H27.75C27.6632 138.103 27.5819 138.064 27.5212 138.002C27.4605 137.939 27.4245 137.857 27.42 137.77V121.77C27.4248 121.684 27.4611 121.603 27.522 121.542C27.5828 121.481 27.664 121.445 27.75 121.44H40.13C40.2264 121.455 40.3157 121.5 40.3856 121.568C40.4555 121.636 40.5025 121.724 40.52 121.82V123.16C40.503 123.257 40.4564 123.347 40.3866 123.417C40.3168 123.486 40.2272 123.533 40.13 123.55H29.86V128.43H39.3C39.3978 128.446 39.4882 128.492 39.5582 128.562C39.6283 128.632 39.6744 128.722 39.69 128.82V130.15C39.6744 130.248 39.6283 130.338 39.5582 130.408C39.4882 130.478 39.3978 130.524 39.3 130.54L29.86 130.51Z" fill="white"/>
<path id="Vector_12" d="M65.17 138.06C65.0832 138.053 65.0019 138.014 64.9412 137.952C64.8805 137.889 64.8445 137.807 64.84 137.72V121.72C64.8448 121.634 64.8811 121.553 64.942 121.492C65.0029 121.431 65.084 121.395 65.17 121.39H72C77.07 121.39 81 124.58 81 129.71C81 134.84 77.7 138.04 72.06 138.04L65.17 138.06ZM67.28 123.52V136H72.08C76.47 136 78.58 133.58 78.58 129.78C78.58 125.98 75.77 123.57 72.03 123.57L67.28 123.52Z" fill="white"/>
<path id="Vector_13" d="M119 121.74C119.007 121.653 119.046 121.572 119.108 121.511C119.171 121.451 119.253 121.415 119.34 121.41H121.11C121.197 121.415 121.279 121.451 121.342 121.511C121.404 121.572 121.443 121.653 121.45 121.74V130.29C121.45 135.67 118.2 138.34 113.23 138.34C108.26 138.34 105.02 135.67 105.02 130.29V121.74C105.025 121.654 105.061 121.573 105.122 121.512C105.183 121.451 105.264 121.415 105.35 121.41H107.13C107.216 121.415 107.297 121.451 107.358 121.512C107.419 121.573 107.455 121.654 107.46 121.74V130.29C107.46 134.34 109.65 136.23 113.23 136.23C116.81 136.23 119 134.34 119 130.29V121.74Z" fill="white"/>
<path id="Vector_14" d="M160.12 127.79C159.82 127.79 159.71 127.71 159.68 127.32C159.51 125.1 157.68 123.24 154.24 123.24C150.66 123.24 147.97 125.62 147.97 129.73C147.97 133.84 150.66 136.23 154.24 136.23C157.63 136.23 159.46 134.62 159.68 132.45C159.68 132.04 159.79 131.95 160.15 131.95H161.7C161.87 131.95 162.15 131.95 162.15 132.17C162.15 135.48 159.24 138.34 154.24 138.34C149.24 138.34 145.53 135.12 145.53 129.73C145.53 124.34 149.3 121.13 154.24 121.13C159.51 121.13 162.15 124.51 162.15 127.51C162.15 127.65 162.04 127.79 161.73 127.79H160.12Z" fill="white"/>
<path id="Vector_15" d="M197.48 134.62H188.24L186.72 137.7C186.52 138.06 186.47 138.06 186.13 138.06H184.33C184.3 138.064 184.27 138.062 184.241 138.054C184.212 138.046 184.185 138.033 184.162 138.014C184.138 137.995 184.119 137.972 184.105 137.945C184.091 137.919 184.082 137.89 184.08 137.86C184.106 137.742 184.154 137.631 184.22 137.53L192.38 121.41H193.38L201.54 137.53C201.602 137.633 201.65 137.744 201.68 137.86C201.676 137.89 201.667 137.92 201.652 137.946C201.636 137.973 201.616 137.996 201.592 138.015C201.568 138.033 201.54 138.047 201.511 138.055C201.481 138.062 201.45 138.064 201.42 138.06H199.62C199.29 138.06 199.23 138.06 199.04 137.7L197.48 134.62ZM189.3 132.51H196.43L194.21 128.07C193.79 127.23 192.96 125.01 192.96 125.01H192.79C192.79 125.01 191.96 127.23 191.55 128.07L189.3 132.51Z" fill="white"/>
<path id="Vector_16" d="M230 142.5C230.06 142.25 230.23 142.28 230.45 142.33C231.06 142.472 231.684 142.546 232.31 142.55C233.17 142.55 233.64 142.33 233.64 141.78C233.64 141.23 233.47 141.08 232.72 141.08H231C230.64 141.08 230.52 140.97 230.58 140.61L230.89 138.28C229.81 138.246 228.748 137.996 227.767 137.545C226.785 137.094 225.903 136.451 225.174 135.655C224.444 134.858 223.881 133.923 223.518 132.906C223.155 131.888 222.999 130.809 223.06 129.73C223.06 124.35 226.83 121.13 231.77 121.13C237.05 121.13 239.68 124.51 239.68 127.51C239.68 127.65 239.57 127.79 239.27 127.79H237.66C237.35 127.79 237.24 127.71 237.21 127.32C237.05 125.1 235.21 123.24 231.77 123.24C228.19 123.24 225.5 125.62 225.5 129.73C225.5 133.84 228.19 136.23 231.77 136.23C235.16 136.23 236.99 134.62 237.21 132.45C237.21 132.04 237.32 131.95 237.68 131.95H239.24C239.41 131.95 239.68 131.95 239.68 132.17C239.68 135.31 237.07 138.03 232.58 138.31L232.5 139.67H233.33C233.612 139.645 233.896 139.683 234.162 139.78C234.428 139.878 234.669 140.033 234.868 140.235C235.066 140.436 235.218 140.679 235.312 140.947C235.406 141.214 235.439 141.498 235.41 141.78C235.41 143.14 234.41 144.11 232.36 144.11C231.626 144.131 230.894 144.037 230.19 143.83C229.94 143.77 229.83 143.64 229.83 143.52C229.838 143.408 229.858 143.298 229.89 143.19L230 142.5Z" fill="white"/>
<path id="Vector_17" d="M275.48 134.62H266.24L264.71 137.7C264.52 138.06 264.46 138.06 264.13 138.06H262.33C262.3 138.064 262.27 138.062 262.241 138.054C262.212 138.046 262.185 138.033 262.162 138.014C262.138 137.995 262.119 137.972 262.105 137.945C262.091 137.919 262.082 137.89 262.08 137.86C262.106 137.742 262.154 137.631 262.22 137.53L270.37 121.41H271.37L279.53 137.53C279.596 137.631 279.644 137.742 279.67 137.86C279.668 137.89 279.659 137.919 279.645 137.945C279.631 137.972 279.612 137.995 279.588 138.014C279.565 138.033 279.538 138.046 279.509 138.054C279.48 138.062 279.45 138.064 279.42 138.06H277.62C277.28 138.06 277.23 138.06 277.03 137.7L275.48 134.62ZM266.6 120C266.32 120 266.18 119.86 266.18 119.64C266.18 117.23 267.18 116.2 268.79 116.2C269.453 116.211 270.095 116.435 270.62 116.84L271.76 117.75C272.065 118.067 272.465 118.274 272.9 118.34C273.56 118.34 273.9 117.84 273.9 116.56C273.899 116.508 273.91 116.457 273.931 116.41C273.952 116.362 273.984 116.32 274.022 116.286C274.061 116.252 274.107 116.226 274.157 116.212C274.206 116.197 274.259 116.193 274.31 116.2H275.15C275.42 116.2 275.56 116.34 275.56 116.56C275.56 118.98 274.56 120 272.95 120C272.289 119.987 271.649 119.766 271.12 119.37L269.99 118.45C269.684 118.137 269.283 117.933 268.85 117.87C268.18 117.87 267.85 118.37 267.85 119.64C267.849 119.692 267.837 119.744 267.815 119.791C267.793 119.838 267.761 119.88 267.721 119.914C267.681 119.948 267.635 119.974 267.585 119.988C267.534 120.003 267.482 120.007 267.43 120H266.6ZM267.29 132.55H274.43L272.21 128.11C271.79 127.27 270.96 125.05 270.96 125.05H270.79C270.79 125.05 269.96 127.27 269.54 128.11L267.29 132.55Z" fill="white"/>
<path id="Vector_18" d="M319.5 129.73C319.5 135.12 315.5 138.34 310.5 138.34C305.5 138.34 301.5 135.12 301.5 129.73C301.5 124.34 305.55 121.13 310.5 121.13C315.45 121.13 319.5 124.35 319.5 129.73ZM303.96 129.73C303.96 131.467 304.65 133.133 305.878 134.362C307.107 135.59 308.773 136.28 310.51 136.28C312.247 136.28 313.913 135.59 315.142 134.362C316.37 133.133 317.06 131.467 317.06 129.73C317.06 127.993 316.37 126.327 315.142 125.098C313.913 123.87 312.247 123.18 310.51 123.18C308.773 123.18 307.107 123.87 305.878 125.098C304.65 126.327 303.96 127.993 303.96 129.73Z" fill="white"/>
</g>
</svg>
