<svg  viewBox="0 0 685 296" fill="none" xmlns="http://www.w3.org/2000/svg">
<g id="brand-nav">
<g id="Group">
<path id="Vector" d="M399.339 192.353H390.913C388.105 192.353 385.686 191.996 383.268 191.283C380.85 190.569 378.431 189.784 376.013 188.714C373.594 187.644 371.566 186.145 370.006 184.647C367.978 183.149 366.417 181.365 365.169 179.153L323.744 117.723V172.589C323.744 175.158 323.354 178.083 322.106 180.652C320.078 185.432 315.631 189.499 310.404 191.354C307.596 192.424 304.787 192.852 301.589 192.852H298V78.6243H306.425C309.234 78.6243 311.652 78.9811 314.071 79.6945C316.489 80.408 318.907 81.1928 321.326 82.2631C323.744 83.3333 325.773 84.8316 327.333 86.3299C329.361 87.8282 330.921 89.6119 332.17 91.8237L373.594 153.682V98.8158C373.594 96.2472 373.985 93.322 375.233 91.1102C376.403 88.5417 378.041 86.3299 380.07 84.4748C382.098 82.6198 384.516 81.1928 387.325 80.0513C390.133 78.9097 392.942 78.553 396.14 78.553H399.339V192.353Z" fill="white"/>
<path id="Vector_2" d="M525.251 189.784L520.415 191.639C518.386 192.353 515.968 192.71 513.94 192.71C511.911 192.71 509.493 192.71 507.465 191.996C505.046 191.283 502.628 190.141 500.599 188.286C498.571 186.431 497.401 184.576 496.153 182.364L490.146 166.882H445.912L440.295 182.721C438.657 187.144 435.069 190.426 430.232 191.925C428.203 192.638 425.785 192.995 423.367 192.995C420.948 192.995 418.53 192.638 416.111 191.925L411.275 190.07L452.309 88.4703C453.48 85.5451 455.508 82.9765 458.316 81.1215C463.933 77.4114 471.579 77.4114 477.196 81.1215C480.004 82.9765 482.032 85.5451 483.203 88.4703L525.251 189.784ZM468.146 106.593L453.246 148.188H483.437L468.146 106.593Z" fill="white"/>
<path id="Vector_3" d="M573.151 159.961L595.307 92.6085C596.087 90.04 597.335 87.8282 598.896 85.9731C600.534 84.1181 602.484 82.263 604.903 81.1928C607.321 80.1226 609.739 78.981 612.158 78.6243C614.966 78.2676 617.775 77.9108 620.583 78.6243L627.838 79.3378L588.832 182.007C587.662 184.933 585.633 187.501 582.825 189.356C580.017 191.211 576.818 192.281 573.151 192.281C565.896 192.281 559.889 188.215 557.471 182.007L518.464 79.3378L524.939 78.2676C527.748 77.9108 530.556 77.9108 533.365 78.2676C536.173 78.6243 538.592 79.7659 541.01 80.8361C543.428 81.9063 545.457 83.7613 547.017 85.6164C548.655 87.4714 549.826 90.04 551.074 92.2517L573.151 159.961Z" fill="white"/>
</g>
<g id="Group_2">
<path id="Vector_4" d="M145.225 241.938C145.225 244.619 142.803 246.927 139.989 247.3V247.672L137.176 257.278C138.817 258.395 139.599 259.959 139.599 261.895C139.599 264.576 137.176 267.256 134.363 267.629L131.94 276.49C131.94 276.862 131.549 277.235 131.549 277.607C133.19 278.724 134.363 280.288 134.363 282.224C134.363 285.277 131.94 287.958 128.345 287.958H127.955C125.141 292.575 117.092 296 107.401 296C102.165 296 96.9295 294.883 92.475 292.574C90.4432 291.458 88.4113 289.894 87.2391 287.958H86.8483C83.6442 287.958 80.8309 285.649 80.8309 282.224C80.8309 280.288 81.6124 278.798 83.6442 277.607C83.6442 277.235 83.2535 276.862 83.2535 276.49L80.8309 267.629C78.0175 267.256 75.5949 264.948 75.5949 261.895C75.5949 259.959 76.3764 258.469 78.0175 257.278L75.2042 247.672V247.3C72.3908 246.927 69.9682 244.619 69.9682 241.938C69.9682 238.885 72.3908 236.204 75.9857 236.204H140.068C141.24 236.204 142.881 236.577 144.131 237.321C144.366 238.513 145.225 240.002 145.225 241.938Z" fill="#B1B3B4"/>
<path id="Vector_5" d="M107.323 77.9653C98.4925 77.9653 91.2247 84.8906 91.2247 93.3052C91.2247 101.72 98.4925 108.645 107.323 108.645C116.154 108.645 123.422 101.72 123.422 93.3052C123.031 84.8161 116.154 77.9653 107.323 77.9653Z" fill="#F7931E"/>
<path id="Vector_6" opacity="0.1" d="M107.323 77.9653C98.4925 77.9653 91.2247 84.8906 91.2247 93.3052C91.2247 101.72 98.4925 108.645 107.323 108.645C116.154 108.645 123.422 101.72 123.422 93.3052C123.031 84.8161 116.154 77.9653 107.323 77.9653Z" fill="white"/>
<path id="Vector_7" opacity="0.1" d="M143.975 236.204L143.193 237.321C129.908 256.906 113.341 274.554 94.8195 289.968C94.038 290.713 93.1784 291.532 92.0061 292.277C89.9743 291.16 87.9424 289.596 86.7702 287.66H86.3794C83.1753 287.66 80.362 285.351 80.362 281.926C80.362 279.99 81.1435 278.501 83.1753 277.309C83.1753 276.937 82.7846 276.565 82.7846 276.192L80.362 267.331C77.5486 266.959 75.126 264.65 75.126 261.597C75.126 259.661 75.9075 258.172 77.5486 256.98L74.7353 247.374V247.002C71.9219 246.629 69.4993 244.321 69.4993 241.64C69.4993 238.587 71.9219 235.906 75.5168 235.906H144.053V236.204H143.975Z" fill="white"/>
<path id="Vector_8" opacity="0.1" d="M100.446 236.204C100.055 255.044 97.2421 273.884 92.0061 292.277C89.9743 291.16 87.9424 289.596 86.7702 287.66H86.3794C83.1753 287.66 80.362 285.351 80.362 281.926C80.362 279.99 81.1435 278.501 83.1753 277.309C83.1753 276.937 82.7846 276.565 82.7846 276.192L80.362 267.331C77.5486 266.959 75.126 264.65 75.126 261.597C75.126 259.661 75.9075 258.172 77.5486 256.98L74.7353 247.374V247.002C71.9219 246.629 69.4993 244.321 69.4993 241.64C69.4993 238.587 71.9219 235.906 75.5168 235.906H100.524V236.204H100.446Z" fill="white"/>
<path id="Vector_9" d="M170.624 19.9567C152.102 6.92529 129.908 0 106.933 0C97.6328 0 88.4113 1.11699 79.5024 3.42541C75.0479 4.54239 71.0623 5.73384 66.6078 7.66994C30.2687 21.8184 4.87042 53.764 0.494095 90.9967C0.103352 93.3052 0.103352 95.9859 0.103352 98.2943V102.167C0.103352 132.548 21.0472 160.92 37.6147 180.504C38.3962 181.621 39.2558 182.44 40.0373 183.557C40.8188 184.674 41.6784 185.493 42.4599 186.238C44.101 188.174 45.664 189.663 46.9144 191.599C47.3051 191.972 48.0866 192.716 48.5555 193.536C48.5555 193.908 48.9462 193.908 48.9462 193.908C50.1185 195.472 51.3689 196.589 52.5411 198.152C54.5729 200.089 56.1359 202.397 57.777 204.705C57.777 205.078 58.1678 205.45 58.1678 205.822C58.9493 208.503 59.8089 211.184 60.9811 213.865C61.3719 214.609 61.3719 215.428 61.7626 216.173C61.7626 216.545 62.1534 217.29 62.1534 217.737C62.5441 218.482 62.5441 218.854 62.5441 219.673V220.045V220.418V220.79C62.5441 221.162 62.9348 221.907 62.9348 221.907C62.9348 222.652 63.3256 223.471 64.1071 224.215C66.5297 224.96 68.9523 225.332 71.3749 225.332C78.252 225.332 84.2694 223.024 89.5054 213.79C92.7095 207.237 94.7413 200.312 96.3825 193.461C97.5547 188.472 99.1958 183.483 100.446 178.494H111.7C114.904 191.525 119.358 208.056 122.562 213.865C127.798 223.098 134.285 225.407 140.693 225.407C143.506 225.407 145.929 224.662 148.742 223.843C149.133 223.098 149.524 222.279 149.524 221.907C149.524 221.907 150.305 219.226 151.555 215.354C151.555 214.982 151.946 214.237 151.946 213.79C152.728 211.109 153.587 208.056 154.369 205.748C154.759 204.184 155.541 203.067 156.791 201.876C158.823 199.195 162.418 194.95 166.873 190.334C183.831 171.121 212.824 137.314 212.824 102.018C214.152 69.4762 197.976 39.1688 170.624 19.9567ZM137.567 187.057C135.926 187.057 135.535 167.845 121.468 162.484C119.827 165.164 117.873 167.473 115.841 170.153H98.1017C96.4606 168.217 94.5069 165.537 92.475 162.484L90.8339 163.228C80.362 168.59 78.7209 182.068 77.1579 185.866C77.1579 185.866 77.1579 186.238 76.7672 186.238C76.7672 186.238 76.7672 186.61 76.3764 186.61C74.7353 186.61 68.7178 160.101 68.7178 148.558C68.7178 143.942 74.3445 137.835 79.5805 132.846C79.1898 130.91 78.799 128.974 78.4083 127.112C78.0175 125.549 78.0175 124.059 77.6268 122.496C77.6268 122.123 77.6268 121.379 77.6268 120.932C77.6268 119.815 77.236 118.623 77.236 117.06C77.236 115.496 77.236 113.634 77.236 111.698C77.236 75.5824 102.244 46.0196 107.089 46.0196C111.934 46.0196 136.942 75.5824 136.942 111.698C136.942 118.623 136.16 125.549 134.128 132.474C139.364 137.463 144.991 143.644 144.991 148.186C145.225 160.92 139.13 187.057 137.567 187.057Z" fill="#F7931E"/>
<path id="Vector_10" opacity="0.1" d="M170.624 19.9567C152.102 6.92529 129.908 0 106.933 0C97.6328 0 88.4113 1.11699 79.5024 3.42541C75.0479 4.54239 71.0623 5.73384 66.6078 7.66994C30.2687 21.8184 4.87042 53.764 0.494095 90.9967C0.103352 93.3052 0.103352 95.9859 0.103352 98.2943V102.167C0.103352 132.548 21.0472 160.92 37.6147 180.504C38.3962 181.621 39.2558 182.44 40.0373 183.557C40.8188 184.674 41.6784 185.493 42.4599 186.238C44.101 188.174 45.664 189.663 46.9144 191.599C47.3051 191.972 48.0866 192.716 48.5555 193.536C48.5555 193.908 48.9462 193.908 48.9462 193.908C50.1185 195.472 51.3689 196.589 52.5411 198.152C54.5729 200.089 56.1359 202.397 57.777 204.705C57.777 205.078 58.1678 205.45 58.1678 205.822C58.9493 208.503 59.8089 211.184 60.9811 213.865C61.3719 214.609 61.3719 215.428 61.7626 216.173C61.7626 216.545 62.1534 217.29 62.1534 217.737C62.5441 218.482 62.5441 218.854 62.5441 219.673V220.045V220.418V220.79C62.5441 221.162 62.9348 221.907 62.9348 221.907C62.9348 222.652 63.3256 223.471 64.1071 224.215C66.5297 224.96 68.9523 225.332 71.3749 225.332C78.252 225.332 84.2694 223.024 89.5054 213.79C92.7095 207.237 94.7413 200.312 96.3825 193.461C97.5547 188.472 99.1958 183.483 100.446 178.494H111.7C114.904 191.525 119.358 208.056 122.562 213.865C127.798 223.098 134.285 225.407 140.693 225.407C143.506 225.407 145.929 224.662 148.742 223.843C149.133 223.098 149.524 222.279 149.524 221.907C149.524 221.907 150.305 219.226 151.555 215.354C151.555 214.982 151.946 214.237 151.946 213.79C152.728 211.109 153.587 208.056 154.369 205.748C154.759 204.184 155.541 203.067 156.791 201.876C158.823 199.195 162.418 194.95 166.873 190.334C189.926 135.974 190.708 75.2101 170.624 19.9567ZM137.567 187.057C135.926 187.057 135.535 167.845 121.468 162.484C119.827 165.164 117.873 167.473 115.841 170.153H98.1017C96.4606 168.217 94.5069 165.537 92.475 162.484L90.8339 163.228C80.362 168.59 78.7209 182.068 77.1579 185.866C77.1579 185.866 77.1579 186.238 76.7672 186.238C76.7672 186.238 76.7672 186.61 76.3764 186.61C74.7353 186.61 68.7178 160.101 68.7178 148.558C68.7178 143.942 74.3445 137.835 79.5805 132.846C79.1898 130.91 78.799 128.974 78.4083 127.112C78.0175 125.549 78.0175 124.059 77.6268 122.496C77.6268 122.123 77.6268 121.379 77.6268 120.932C77.6268 119.815 77.236 118.623 77.236 117.06C77.236 115.496 77.236 113.634 77.236 111.698C77.236 75.5824 102.244 46.0196 107.089 46.0196C111.934 46.0196 136.942 75.5824 136.942 111.698C136.942 118.623 136.16 125.549 134.128 132.474C139.364 137.463 144.991 143.644 144.991 148.186C145.225 160.92 139.13 187.057 137.567 187.057Z" fill="white"/>
<path id="Vector_11" opacity="0.1" d="M91.1465 163.6C79.0335 169.781 78.6427 187.429 76.6109 187.429C74.9697 187.429 68.9523 160.92 68.9523 149.378C68.9523 144.761 74.579 138.655 79.8149 133.665C79.8149 133.293 79.8149 132.921 79.4242 132.548C68.9523 108.719 54.4166 86.8266 36.6769 67.2422C30.1906 60.317 23.7824 53.764 16.5146 47.2855C5.6519 63.8168 -0.44369 82.6566 0.0252017 102.241C0.0252017 132.623 20.969 160.994 37.5365 180.579C38.318 181.696 39.1777 182.515 39.9591 183.632C40.7406 184.749 41.6003 185.568 42.3818 186.312C44.0229 188.249 45.5859 189.738 46.8362 191.674C47.227 192.046 48.0085 192.791 48.4773 193.61C48.4773 193.982 48.8681 193.982 48.8681 193.982C50.0403 195.546 51.2907 196.663 52.4629 198.227C54.8855 200.535 56.5267 203.216 58.0896 205.897C58.8711 208.578 59.7308 211.258 60.903 213.939C61.2937 214.684 61.2937 215.503 61.6845 216.248C61.6845 216.62 62.0752 217.365 62.0752 217.811C62.466 218.556 62.466 218.928 62.466 219.747V220.12V220.492V220.864C62.466 221.237 62.8567 221.981 62.8567 221.981C62.8567 222.726 63.2474 223.545 64.0289 224.29C66.4515 225.034 68.8741 225.407 71.2968 225.407C78.1738 225.407 84.1913 223.098 89.4272 213.865C92.6313 207.312 94.6632 200.386 96.3043 193.536C95.9917 183.557 93.9599 173.579 91.1465 163.6Z" fill="white"/>
</g>
<path id="nosso ambiente virtual" d="M271.825 234.628V239.1H268.318V234.803C268.318 233.166 267.85 231.968 266.915 231.208C266.009 230.448 264.781 230.068 263.232 230.068C262.063 230.068 261.025 230.214 260.119 230.507C259.213 230.799 258.439 231.135 257.796 231.515V239.1H254.288V231.69C254.288 231.077 254.405 230.58 254.639 230.2C254.902 229.791 255.34 229.396 255.954 229.016C256.714 228.578 257.723 228.168 258.979 227.788C260.236 227.379 261.654 227.175 263.232 227.175C265.892 227.175 267.982 227.788 269.502 229.016C271.051 230.214 271.825 232.085 271.825 234.628ZM254.288 236.689H257.796V247.912C257.65 247.971 257.43 248.029 257.138 248.088C256.846 248.175 256.524 248.219 256.173 248.219C255.56 248.219 255.092 248.102 254.77 247.868C254.449 247.605 254.288 247.196 254.288 246.641V236.689ZM268.318 236.689H271.825V247.912C271.679 247.971 271.445 248.029 271.124 248.088C270.832 248.175 270.525 248.219 270.203 248.219C269.56 248.219 269.078 248.102 268.756 247.868C268.464 247.605 268.318 247.196 268.318 246.641V236.689ZM297.202 237.872C297.202 240.035 296.793 241.92 295.974 243.528C295.156 245.136 294.001 246.378 292.511 247.255C291.02 248.132 289.266 248.57 287.25 248.57C285.233 248.57 283.464 248.132 281.945 247.255C280.454 246.378 279.299 245.136 278.481 243.528C277.663 241.92 277.253 240.035 277.253 237.872C277.253 235.68 277.663 233.795 278.481 232.217C279.329 230.609 280.498 229.367 281.988 228.49C283.508 227.613 285.262 227.175 287.25 227.175C289.237 227.175 290.976 227.613 292.467 228.49C293.957 229.367 295.112 230.609 295.93 232.217C296.778 233.795 297.202 235.68 297.202 237.872ZM287.25 230.068C285.291 230.068 283.727 230.77 282.558 232.173C281.418 233.546 280.848 235.446 280.848 237.872C280.848 240.327 281.404 242.242 282.514 243.616C283.654 244.989 285.233 245.676 287.25 245.676C289.237 245.676 290.786 244.989 291.897 243.616C293.037 242.213 293.607 240.298 293.607 237.872C293.607 235.446 293.037 233.546 291.897 232.173C290.786 230.77 289.237 230.068 287.25 230.068ZM316.92 242.607C316.92 244.478 316.233 245.939 314.859 246.992C313.485 248.044 311.498 248.57 308.896 248.57C306.675 248.57 304.863 248.234 303.46 247.562C302.057 246.86 301.355 246.1 301.355 245.282C301.355 244.931 301.443 244.595 301.618 244.273C301.823 243.923 302.115 243.645 302.495 243.44C303.284 243.996 304.205 244.507 305.257 244.975C306.31 245.442 307.508 245.676 308.852 245.676C311.892 245.676 313.412 244.653 313.412 242.607C313.412 241.76 313.149 241.073 312.623 240.547C312.126 239.991 311.381 239.597 310.387 239.363L306.748 238.398C304.965 237.96 303.664 237.288 302.846 236.382C302.028 235.446 301.618 234.292 301.618 232.918C301.618 231.369 302.247 230.024 303.504 228.884C304.76 227.745 306.675 227.175 309.247 227.175C310.621 227.175 311.819 227.321 312.842 227.613C313.865 227.876 314.654 228.241 315.21 228.709C315.794 229.148 316.086 229.63 316.086 230.156C316.086 230.536 315.984 230.872 315.78 231.164C315.604 231.457 315.356 231.676 315.034 231.822C314.684 231.588 314.23 231.34 313.675 231.077C313.149 230.784 312.521 230.551 311.79 230.375C311.059 230.171 310.255 230.068 309.379 230.068C308.092 230.068 307.055 230.317 306.266 230.814C305.477 231.31 305.082 232.012 305.082 232.918C305.082 233.561 305.301 234.131 305.74 234.628C306.207 235.096 306.938 235.446 307.932 235.68L310.957 236.425C312.944 236.893 314.435 237.638 315.429 238.661C316.423 239.655 316.92 240.971 316.92 242.607ZM336.529 242.607C336.529 244.478 335.842 245.939 334.468 246.992C333.095 248.044 331.107 248.57 328.506 248.57C326.284 248.57 324.472 248.234 323.069 247.562C321.666 246.86 320.965 246.1 320.965 245.282C320.965 244.931 321.052 244.595 321.228 244.273C321.432 243.923 321.725 243.645 322.105 243.44C322.894 243.996 323.814 244.507 324.867 244.975C325.919 245.442 327.117 245.676 328.462 245.676C331.502 245.676 333.022 244.653 333.022 242.607C333.022 241.76 332.758 241.073 332.232 240.547C331.735 239.991 330.99 239.597 329.996 239.363L326.357 238.398C324.574 237.96 323.274 237.288 322.455 236.382C321.637 235.446 321.228 234.292 321.228 232.918C321.228 231.369 321.856 230.024 323.113 228.884C324.37 227.745 326.284 227.175 328.856 227.175C330.23 227.175 331.429 227.321 332.452 227.613C333.475 227.876 334.264 228.241 334.819 228.709C335.404 229.148 335.696 229.63 335.696 230.156C335.696 230.536 335.594 230.872 335.389 231.164C335.214 231.457 334.965 231.676 334.644 231.822C334.293 231.588 333.84 231.34 333.285 231.077C332.758 230.784 332.13 230.551 331.399 230.375C330.669 230.171 329.865 230.068 328.988 230.068C327.702 230.068 326.664 230.317 325.875 230.814C325.086 231.31 324.691 232.012 324.691 232.918C324.691 233.561 324.911 234.131 325.349 234.628C325.817 235.096 326.547 235.446 327.541 235.68L330.566 236.425C332.554 236.893 334.045 237.638 335.038 238.661C336.032 239.655 336.529 240.971 336.529 242.607ZM360.868 237.872C360.868 240.035 360.459 241.92 359.641 243.528C358.822 245.136 357.668 246.378 356.177 247.255C354.686 248.132 352.933 248.57 350.916 248.57C348.899 248.57 347.131 248.132 345.611 247.255C344.12 246.378 342.966 245.136 342.147 243.528C341.329 241.92 340.92 240.035 340.92 237.872C340.92 235.68 341.329 233.795 342.147 232.217C342.995 230.609 344.164 229.367 345.655 228.49C347.175 227.613 348.928 227.175 350.916 227.175C352.903 227.175 354.643 227.613 356.133 228.49C357.624 229.367 358.778 230.609 359.597 232.217C360.444 233.795 360.868 235.68 360.868 237.872ZM350.916 230.068C348.958 230.068 347.394 230.77 346.225 232.173C345.085 233.546 344.515 235.446 344.515 237.872C344.515 240.327 345.07 242.242 346.181 243.616C347.321 244.989 348.899 245.676 350.916 245.676C352.903 245.676 354.453 244.989 355.563 243.616C356.703 242.213 357.273 240.298 357.273 237.872C357.273 235.446 356.703 233.546 355.563 232.173C354.453 230.77 352.903 230.068 350.916 230.068ZM382.304 245.72C383.532 245.72 384.54 245.603 385.33 245.369C386.148 245.106 386.732 244.858 387.083 244.624V238.267L381.647 238.837C380.127 238.954 379.002 239.29 378.271 239.845C377.54 240.401 377.175 241.204 377.175 242.257C377.175 243.338 377.599 244.186 378.446 244.799C379.323 245.413 380.609 245.72 382.304 245.72ZM382.261 227.175C384.803 227.175 386.82 227.745 388.311 228.884C389.801 230.024 390.547 231.822 390.547 234.277V244.668C390.547 245.311 390.415 245.808 390.152 246.159C389.918 246.48 389.553 246.787 389.056 247.079C388.355 247.459 387.419 247.81 386.25 248.132C385.081 248.453 383.766 248.614 382.304 248.614C379.557 248.614 377.423 248.073 375.903 246.992C374.413 245.91 373.667 244.346 373.667 242.3C373.667 240.401 374.296 238.954 375.553 237.96C376.839 236.937 378.607 236.323 380.858 236.119L387.083 235.505V234.277C387.083 232.816 386.645 231.749 385.768 231.077C384.891 230.404 383.707 230.068 382.217 230.068C381.018 230.068 379.864 230.244 378.753 230.594C377.672 230.945 376.707 231.34 375.859 231.778C375.626 231.574 375.406 231.34 375.202 231.077C375.026 230.784 374.939 230.492 374.939 230.2C374.939 229.44 375.363 228.855 376.21 228.446C376.999 228.037 377.905 227.73 378.928 227.525C379.981 227.292 381.091 227.175 382.261 227.175ZM413.302 233.97V239.012H409.795V234.233C409.795 232.801 409.371 231.749 408.523 231.077C407.705 230.404 406.609 230.068 405.235 230.068C404.329 230.068 403.452 230.214 402.605 230.507C401.757 230.799 401.041 231.135 400.456 231.515V239.012H396.949V231.69C396.949 231.106 397.066 230.609 397.3 230.2C397.563 229.791 398.001 229.396 398.615 229.016C399.404 228.519 400.398 228.095 401.596 227.745C402.824 227.365 404.051 227.175 405.279 227.175C406.77 227.175 408.085 227.408 409.225 227.876C410.365 228.315 411.212 228.928 411.768 229.718C411.943 229.893 412.089 230.054 412.206 230.2C412.323 230.346 412.44 230.536 412.557 230.77C412.762 231.12 412.937 231.574 413.083 232.129C413.229 232.684 413.302 233.298 413.302 233.97ZM426.148 234.058V239.012H422.641V234.233C422.641 232.801 422.232 231.749 421.413 231.077C420.595 230.404 419.499 230.068 418.125 230.068C417.102 230.068 416.108 230.287 415.144 230.726C414.208 231.135 413.361 231.734 412.601 232.523L411.198 229.981C411.958 229.221 412.952 228.563 414.179 228.008C415.407 227.452 416.81 227.175 418.388 227.175C419.966 227.175 421.326 227.423 422.465 227.92C423.635 228.417 424.541 229.177 425.184 230.2C425.827 231.223 426.148 232.509 426.148 234.058ZM396.949 236.689H400.456V247.912C400.31 247.971 400.091 248.029 399.799 248.088C399.506 248.175 399.185 248.219 398.834 248.219C398.22 248.219 397.753 248.102 397.431 247.868C397.11 247.605 396.949 247.196 396.949 246.641V236.689ZM409.795 236.689H413.302V247.912C413.156 247.971 412.922 248.029 412.601 248.088C412.309 248.175 412.002 248.219 411.68 248.219C411.037 248.219 410.555 248.102 410.233 247.868C409.941 247.605 409.795 247.196 409.795 246.641V236.689ZM422.641 236.689H426.148V247.912C426.002 247.971 425.768 248.029 425.447 248.088C425.154 248.175 424.848 248.219 424.526 248.219C423.883 248.219 423.401 248.102 423.079 247.868C422.787 247.605 422.641 247.196 422.641 246.641V236.689ZM441.774 227.175C443.586 227.175 445.209 227.569 446.641 228.358C448.102 229.118 449.242 230.287 450.06 231.866C450.908 233.444 451.332 235.446 451.332 237.872C451.332 240.327 450.893 242.344 450.017 243.923C449.169 245.501 447.985 246.67 446.465 247.43C444.945 248.19 443.177 248.57 441.16 248.57C439.728 248.57 438.427 248.395 437.258 248.044C436.118 247.693 435.183 247.313 434.452 246.904C433.839 246.495 433.415 246.115 433.181 245.764C432.947 245.413 432.83 244.931 432.83 244.317V229.718H436.338V244.317C436.776 244.639 437.419 244.946 438.267 245.238C439.114 245.53 440.079 245.676 441.16 245.676C443.148 245.676 444.741 245.048 445.939 243.791C447.167 242.534 447.781 240.561 447.781 237.872C447.781 235.154 447.167 233.181 445.939 231.953C444.712 230.697 443.148 230.068 441.248 230.068C440.079 230.068 439.041 230.302 438.135 230.77C437.229 231.208 436.484 231.72 435.899 232.304L435.242 229.454C435.885 228.958 436.747 228.461 437.828 227.964C438.91 227.438 440.225 227.175 441.774 227.175ZM436.338 230.419H432.83V219.59C432.976 219.531 433.196 219.473 433.488 219.414C433.809 219.327 434.145 219.283 434.496 219.283C435.11 219.283 435.563 219.414 435.855 219.677C436.177 219.911 436.338 220.306 436.338 220.861V230.419ZM456.498 221.344C456.498 220.73 456.717 220.218 457.155 219.809C457.594 219.371 458.135 219.151 458.778 219.151C459.45 219.151 459.991 219.371 460.4 219.809C460.809 220.218 461.014 220.73 461.014 221.344C461.014 221.957 460.809 222.483 460.4 222.922C459.991 223.331 459.45 223.536 458.778 223.536C458.135 223.536 457.594 223.331 457.155 222.922C456.717 222.483 456.498 221.957 456.498 221.344ZM457.024 236.425H460.531V247.912C460.385 247.971 460.166 248.029 459.874 248.088C459.581 248.175 459.26 248.219 458.909 248.219C458.295 248.219 457.828 248.102 457.506 247.868C457.185 247.605 457.024 247.196 457.024 246.641V236.425ZM460.531 238.135H457.024V227.832C457.17 227.774 457.389 227.715 457.682 227.657C458.003 227.569 458.339 227.525 458.69 227.525C459.304 227.525 459.757 227.657 460.049 227.92C460.371 228.154 460.531 228.563 460.531 229.148V238.135ZM468.652 240.108L468.476 237.346L481.717 235.549C481.6 233.941 481.044 232.626 480.051 231.603C479.057 230.551 477.683 230.024 475.929 230.024C474.117 230.024 472.612 230.682 471.414 231.997C470.245 233.283 469.66 235.139 469.66 237.565V238.53C469.865 240.868 470.624 242.651 471.94 243.879C473.284 245.077 475.111 245.676 477.42 245.676C478.648 245.676 479.758 245.472 480.752 245.063C481.746 244.653 482.535 244.215 483.12 243.747C483.441 243.952 483.69 244.2 483.865 244.493C484.07 244.756 484.172 245.063 484.172 245.413C484.172 245.969 483.85 246.495 483.207 246.992C482.594 247.459 481.761 247.839 480.708 248.132C479.685 248.424 478.531 248.57 477.245 248.57C474.994 248.57 473.036 248.161 471.37 247.342C469.733 246.524 468.462 245.311 467.555 243.703C466.679 242.067 466.24 240.079 466.24 237.741C466.24 236.075 466.474 234.599 466.942 233.313C467.439 231.997 468.111 230.887 468.958 229.981C469.835 229.074 470.873 228.388 472.071 227.92C473.27 227.423 474.57 227.175 475.973 227.175C477.756 227.175 479.32 227.555 480.665 228.315C482.038 229.074 483.105 230.141 483.865 231.515C484.654 232.86 485.049 234.409 485.049 236.162C485.049 236.805 484.903 237.273 484.61 237.565C484.318 237.828 483.909 237.989 483.383 238.048L468.652 240.108ZM507.652 234.628V239.1H504.145V234.803C504.145 233.166 503.677 231.968 502.742 231.208C501.836 230.448 500.608 230.068 499.059 230.068C497.89 230.068 496.852 230.214 495.946 230.507C495.04 230.799 494.266 231.135 493.622 231.515V239.1H490.115V231.69C490.115 231.077 490.232 230.58 490.466 230.2C490.729 229.791 491.167 229.396 491.781 229.016C492.541 228.578 493.549 228.168 494.806 227.788C496.063 227.379 497.481 227.175 499.059 227.175C501.719 227.175 503.809 227.788 505.329 229.016C506.878 230.214 507.652 232.085 507.652 234.628ZM490.115 236.689H493.622V247.912C493.476 247.971 493.257 248.029 492.965 248.088C492.673 248.175 492.351 248.219 492 248.219C491.387 248.219 490.919 248.102 490.597 247.868C490.276 247.605 490.115 247.196 490.115 246.641V236.689ZM504.145 236.689H507.652V247.912C507.506 247.971 507.272 248.029 506.951 248.088C506.658 248.175 506.352 248.219 506.03 248.219C505.387 248.219 504.905 248.102 504.583 247.868C504.291 247.605 504.145 247.196 504.145 246.641V236.689ZM514.264 236.425H517.771V242.476C517.771 243.645 518.108 244.478 518.78 244.975C519.452 245.442 520.373 245.676 521.542 245.676C522.039 245.676 522.594 245.589 523.208 245.413C523.822 245.238 524.333 245.033 524.742 244.799C524.918 244.975 525.079 245.194 525.225 245.457C525.371 245.72 525.444 246.027 525.444 246.378C525.444 247.021 525.064 247.547 524.304 247.956C523.544 248.365 522.492 248.57 521.147 248.57C519.101 248.57 517.435 248.117 516.149 247.211C514.892 246.305 514.264 244.799 514.264 242.695V236.425ZM516.062 231.077V228.183H524.962C525.049 228.3 525.137 228.49 525.225 228.753C525.312 229.016 525.356 229.294 525.356 229.586C525.356 230.054 525.239 230.419 525.005 230.682C524.772 230.945 524.45 231.077 524.041 231.077H516.062ZM517.771 237.741H514.264V221.87C514.41 221.811 514.629 221.753 514.922 221.694C515.243 221.607 515.579 221.563 515.93 221.563C516.544 221.563 516.997 221.694 517.289 221.957C517.611 222.191 517.771 222.586 517.771 223.141V237.741ZM531.162 240.108L530.987 237.346L544.227 235.549C544.11 233.941 543.555 232.626 542.561 231.603C541.567 230.551 540.194 230.024 538.44 230.024C536.628 230.024 535.122 230.682 533.924 231.997C532.755 233.283 532.17 235.139 532.17 237.565V238.53C532.375 240.868 533.135 242.651 534.45 243.879C535.795 245.077 537.621 245.676 539.931 245.676C541.158 245.676 542.269 245.472 543.263 245.063C544.256 244.653 545.046 244.215 545.63 243.747C545.952 243.952 546.2 244.2 546.375 244.493C546.58 244.756 546.682 245.063 546.682 245.413C546.682 245.969 546.361 246.495 545.718 246.992C545.104 247.459 544.271 247.839 543.219 248.132C542.196 248.424 541.041 248.57 539.755 248.57C537.505 248.57 535.546 248.161 533.88 247.342C532.243 246.524 530.972 245.311 530.066 243.703C529.189 242.067 528.751 240.079 528.751 237.741C528.751 236.075 528.984 234.599 529.452 233.313C529.949 231.997 530.621 230.887 531.469 229.981C532.346 229.074 533.383 228.388 534.582 227.92C535.78 227.423 537.081 227.175 538.484 227.175C540.267 227.175 541.83 227.555 543.175 228.315C544.549 229.074 545.615 230.141 546.375 231.515C547.165 232.86 547.559 234.409 547.559 236.162C547.559 236.805 547.413 237.273 547.121 237.565C546.828 237.828 546.419 237.989 545.893 238.048L531.162 240.108ZM576.572 227.35C577.069 227.35 577.464 227.482 577.756 227.745C578.078 228.008 578.238 228.388 578.238 228.884C578.238 229.264 578.078 229.981 577.756 231.033C577.434 232.085 577.011 233.342 576.485 234.803C575.958 236.265 575.374 237.799 574.731 239.407C574.117 240.985 573.474 242.52 572.802 244.01C572.159 245.472 571.56 246.743 571.004 247.825C570.858 247.942 570.595 248.044 570.215 248.132C569.864 248.219 569.484 248.263 569.075 248.263C568.578 248.263 568.14 248.175 567.76 248C567.38 247.854 567.117 247.635 566.971 247.342C566.649 246.758 566.225 245.91 565.699 244.799C565.202 243.66 564.662 242.373 564.077 240.941C563.492 239.509 562.893 238.033 562.279 236.513C561.695 234.964 561.154 233.488 560.657 232.085C560.16 230.653 559.751 229.396 559.43 228.315C559.634 228.022 559.912 227.788 560.263 227.613C560.613 227.438 560.964 227.35 561.315 227.35C561.841 227.35 562.25 227.482 562.543 227.745C562.835 228.008 563.083 228.446 563.288 229.06L566.006 236.908C566.24 237.58 566.547 238.413 566.927 239.407C567.307 240.401 567.687 241.394 568.067 242.388C568.447 243.382 568.754 244.215 568.987 244.887H569.163C570.332 241.935 571.428 239.027 572.451 236.162C573.474 233.269 574.351 230.448 575.082 227.701C575.462 227.467 575.958 227.35 576.572 227.35ZM582.803 221.344C582.803 220.73 583.022 220.218 583.461 219.809C583.899 219.371 584.44 219.151 585.083 219.151C585.755 219.151 586.296 219.371 586.705 219.809C587.114 220.218 587.319 220.73 587.319 221.344C587.319 221.957 587.114 222.483 586.705 222.922C586.296 223.331 585.755 223.536 585.083 223.536C584.44 223.536 583.899 223.331 583.461 222.922C583.022 222.483 582.803 221.957 582.803 221.344ZM583.329 236.425H586.837V247.912C586.69 247.971 586.471 248.029 586.179 248.088C585.887 248.175 585.565 248.219 585.214 248.219C584.601 248.219 584.133 248.102 583.811 247.868C583.49 247.605 583.329 247.196 583.329 246.641V236.425ZM586.837 238.135H583.329V227.832C583.475 227.774 583.695 227.715 583.987 227.657C584.308 227.569 584.644 227.525 584.995 227.525C585.609 227.525 586.062 227.657 586.354 227.92C586.676 228.154 586.837 228.563 586.837 229.148V238.135ZM597.193 231.515V238.442H593.685V231.778C593.685 231.106 593.802 230.58 594.036 230.2C594.299 229.791 594.723 229.396 595.308 229.016C596.067 228.519 597.105 228.095 598.42 227.745C599.736 227.365 601.197 227.175 602.805 227.175C605.143 227.175 606.312 227.759 606.312 228.928C606.312 229.221 606.268 229.498 606.181 229.761C606.093 229.995 605.976 230.2 605.83 230.375C605.538 230.317 605.158 230.258 604.69 230.2C604.222 230.141 603.755 230.112 603.287 230.112C601.942 230.112 600.759 230.258 599.736 230.551C598.713 230.814 597.865 231.135 597.193 231.515ZM593.685 236.425L597.193 236.952V247.912C597.047 247.971 596.827 248.029 596.535 248.088C596.243 248.175 595.921 248.219 595.571 248.219C594.957 248.219 594.489 248.102 594.168 247.868C593.846 247.605 593.685 247.196 593.685 246.641V236.425ZM610.47 236.425H613.977V242.476C613.977 243.645 614.314 244.478 614.986 244.975C615.658 245.442 616.579 245.676 617.748 245.676C618.245 245.676 618.8 245.589 619.414 245.413C620.028 245.238 620.539 245.033 620.948 244.799C621.124 244.975 621.285 245.194 621.431 245.457C621.577 245.72 621.65 246.027 621.65 246.378C621.65 247.021 621.27 247.547 620.51 247.956C619.75 248.365 618.698 248.57 617.353 248.57C615.307 248.57 613.641 248.117 612.355 247.211C611.098 246.305 610.47 244.799 610.47 242.695V236.425ZM612.268 231.077V228.183H621.168C621.255 228.3 621.343 228.49 621.431 228.753C621.518 229.016 621.562 229.294 621.562 229.586C621.562 230.054 621.445 230.419 621.212 230.682C620.978 230.945 620.656 231.077 620.247 231.077H612.268ZM613.977 237.741H610.47V221.87C610.616 221.811 610.835 221.753 611.128 221.694C611.449 221.607 611.785 221.563 612.136 221.563C612.75 221.563 613.203 221.694 613.495 221.957C613.817 222.191 613.977 222.586 613.977 223.141V237.741ZM626.525 240.591V236.601H630.032V240.415C630.032 242.286 630.529 243.63 631.523 244.449C632.517 245.267 633.89 245.676 635.644 245.676C636.813 245.676 637.807 245.559 638.625 245.326C639.444 245.063 640.087 244.799 640.554 244.536V236.601H644.062V244.405C644.062 245.019 643.974 245.516 643.799 245.896C643.653 246.246 643.273 246.597 642.659 246.948C642.016 247.328 641.095 247.693 639.897 248.044C638.698 248.395 637.266 248.57 635.6 248.57C633.671 248.57 632.02 248.292 630.646 247.737C629.301 247.152 628.278 246.276 627.577 245.106C626.875 243.908 626.525 242.403 626.525 240.591ZM644.062 238.881H640.554V227.832C640.701 227.774 640.92 227.715 641.212 227.657C641.534 227.569 641.855 227.525 642.177 227.525C642.82 227.525 643.287 227.657 643.58 227.92C643.901 228.154 644.062 228.563 644.062 229.148V238.881ZM630.032 238.881H626.525V227.832C626.671 227.774 626.89 227.715 627.182 227.657C627.504 227.569 627.84 227.525 628.191 227.525C628.805 227.525 629.258 227.657 629.55 227.92C629.871 228.154 630.032 228.563 630.032 229.148V238.881ZM657.864 245.72C659.091 245.72 660.1 245.603 660.889 245.369C661.707 245.106 662.292 244.858 662.643 244.624V238.267L657.206 238.837C655.686 238.954 654.561 239.29 653.83 239.845C653.1 240.401 652.734 241.204 652.734 242.257C652.734 243.338 653.158 244.186 654.006 244.799C654.883 245.413 656.169 245.72 657.864 245.72ZM657.82 227.175C660.363 227.175 662.38 227.745 663.87 228.884C665.361 230.024 666.106 231.822 666.106 234.277V244.668C666.106 245.311 665.975 245.808 665.712 246.159C665.478 246.48 665.113 246.787 664.616 247.079C663.914 247.459 662.979 247.81 661.81 248.132C660.641 248.453 659.325 248.614 657.864 248.614C655.116 248.614 652.983 248.073 651.463 246.992C649.972 245.91 649.227 244.346 649.227 242.3C649.227 240.401 649.855 238.954 651.112 237.96C652.398 236.937 654.166 236.323 656.417 236.119L662.643 235.505V234.277C662.643 232.816 662.204 231.749 661.327 231.077C660.451 230.404 659.267 230.068 657.776 230.068C656.578 230.068 655.423 230.244 654.313 230.594C653.231 230.945 652.267 231.34 651.419 231.778C651.185 231.574 650.966 231.34 650.761 231.077C650.586 230.784 650.498 230.492 650.498 230.2C650.498 229.44 650.922 228.855 651.77 228.446C652.559 228.037 653.465 227.73 654.488 227.525C655.54 227.292 656.651 227.175 657.82 227.175ZM672.859 236.425L676.367 236.952V247.912C676.22 247.971 676.001 248.029 675.709 248.088C675.417 248.175 675.095 248.219 674.744 248.219C674.131 248.219 673.663 248.102 673.341 247.868C673.02 247.605 672.859 247.196 672.859 246.641V236.425ZM676.367 238.618L672.859 238.135V219.59C673.005 219.531 673.224 219.473 673.517 219.414C673.838 219.327 674.16 219.283 674.481 219.283C675.124 219.283 675.592 219.414 675.884 219.677C676.206 219.911 676.367 220.306 676.367 220.861V238.618Z" fill="white"/>
</g>
</svg>
